<?xml version="1.0" encoding="utf-8"?>
<!-- Generator: Adobe Illustrator 21.1.0, SVG Export Plug-In . SVG Version: 6.00 Build 0)  -->
<svg version="1.1" id="Layer_1" xmlns="http://www.w3.org/2000/svg" xmlns:xlink="http://www.w3.org/1999/xlink" x="0px" y="0px"
	 viewBox="0 0 285.5 50" enable-background="new 0 0 285.5 50" xml:space="preserve">
<g>
	<path fill="#168086" d="M157.274,35.719l-1.267,7.663h4.21c0.336,0,0.58,0.084,0.731,0.251c0.152,0.167,0.207,0.378,0.165,0.632
		c-0.043,0.259-0.166,0.468-0.37,0.628c-0.203,0.161-0.475,0.241-0.816,0.241h-5.014c-0.452,0-0.76-0.102-0.924-0.309
		c-0.164-0.206-0.208-0.539-0.132-0.998l1.341-8.108c0.071-0.431,0.219-0.754,0.443-0.97c0.225-0.216,0.491-0.323,0.799-0.323
		c0.312,0,0.548,0.106,0.706,0.32C157.303,34.958,157.346,35.283,157.274,35.719z"/>
	<path fill="#168086" d="M168.217,41.809h-3.734c-0.069,0.445-0.047,0.838,0.067,1.178c0.114,0.34,0.297,0.596,0.551,0.769
		s0.551,0.258,0.891,0.258c0.228,0,0.441-0.027,0.639-0.083c0.198-0.054,0.395-0.141,0.592-0.258
		c0.196-0.117,0.38-0.242,0.552-0.377c0.171-0.134,0.395-0.316,0.671-0.546c0.112-0.086,0.259-0.129,0.441-0.129
		c0.196,0,0.345,0.055,0.448,0.165c0.104,0.11,0.138,0.266,0.105,0.467c-0.029,0.178-0.131,0.385-0.305,0.621
		c-0.175,0.237-0.416,0.465-0.725,0.683c-0.309,0.218-0.681,0.399-1.118,0.542c-0.436,0.144-0.922,0.216-1.458,0.216
		c-1.226,0-2.121-0.359-2.683-1.077c-0.562-0.718-0.741-1.693-0.538-2.923c0.096-0.58,0.269-1.117,0.519-1.612
		c0.25-0.496,0.565-0.921,0.945-1.275c0.38-0.354,0.821-0.626,1.323-0.815c0.502-0.189,1.04-0.283,1.614-0.283
		c0.746,0,1.359,0.162,1.839,0.484c0.48,0.324,0.811,0.741,0.992,1.253c0.181,0.512,0.228,1.034,0.139,1.566
		c-0.081,0.493-0.272,0.813-0.571,0.959C169.115,41.736,168.716,41.809,168.217,41.809z M164.666,40.696h3.462
		c0.064-0.67-0.029-1.172-0.279-1.505c-0.251-0.333-0.625-0.499-1.124-0.499c-0.475,0-0.894,0.169-1.255,0.507
		C165.109,39.536,164.841,40.035,164.666,40.696z"/>
	<path fill="#168086" d="M172.322,37.514h0.21l0.195-1.178c0.052-0.316,0.101-0.564,0.147-0.743c0.046-0.18,0.117-0.334,0.213-0.464
		c0.096-0.134,0.222-0.243,0.376-0.326c0.154-0.084,0.316-0.126,0.49-0.126c0.242,0,0.446,0.094,0.611,0.28
		c0.11,0.124,0.167,0.277,0.172,0.456c0.005,0.18-0.019,0.435-0.074,0.765l-0.221,1.336h0.699c0.27,0,0.466,0.066,0.587,0.197
		c0.12,0.132,0.164,0.301,0.129,0.507c-0.044,0.264-0.175,0.447-0.396,0.553c-0.22,0.105-0.519,0.158-0.896,0.158h-0.357
		l-0.596,3.605c-0.051,0.307-0.08,0.543-0.086,0.707c-0.007,0.166,0.027,0.3,0.101,0.402c0.074,0.104,0.213,0.155,0.419,0.155
		c0.111,0,0.267-0.021,0.464-0.061c0.198-0.041,0.351-0.061,0.458-0.061c0.153,0,0.282,0.063,0.385,0.19
		c0.102,0.127,0.139,0.283,0.108,0.47c-0.052,0.316-0.26,0.558-0.623,0.725c-0.363,0.167-0.86,0.251-1.489,0.251
		c-0.597,0-1.032-0.103-1.306-0.309c-0.273-0.206-0.428-0.491-0.463-0.854c-0.036-0.364-0.003-0.849,0.097-1.458l0.622-3.763h-0.252
		c-0.275,0-0.474-0.067-0.596-0.201c-0.122-0.134-0.166-0.304-0.132-0.51c0.034-0.206,0.138-0.375,0.311-0.507
		C171.802,37.58,172.033,37.514,172.322,37.514z"/>
	<path fill="#168086" d="M179.083,36.602h-0.105c-0.261,0-0.48-0.109-0.656-0.327c-0.176-0.218-0.24-0.475-0.19-0.772
		c0.05-0.307,0.199-0.563,0.445-0.769c0.246-0.206,0.526-0.309,0.839-0.309c0.214,0,0.404,0.063,0.57,0.19
		c0.165,0.127,0.279,0.311,0.342,0.553c0.063,0.242,0.066,0.538,0.007,0.887c-0.078,0.474-0.25,0.918-0.514,1.333
		c-0.264,0.414-0.557,0.742-0.88,0.983c-0.322,0.242-0.597,0.363-0.826,0.363c-0.144,0-0.254-0.046-0.329-0.139
		c-0.076-0.094-0.102-0.207-0.08-0.342c0.035-0.216,0.157-0.373,0.365-0.474c0.272-0.149,0.492-0.311,0.662-0.489
		C178.901,37.114,179.018,36.884,179.083,36.602z"/>
	<path fill="#168086" d="M187.008,42.75c-0.09,0.541-0.295,1.005-0.614,1.39c-0.32,0.385-0.747,0.678-1.281,0.876
		c-0.535,0.198-1.16,0.298-1.878,0.298c-0.685,0-1.255-0.108-1.71-0.323c-0.454-0.216-0.77-0.485-0.95-0.808
		c-0.18-0.324-0.243-0.648-0.189-0.973c0.036-0.216,0.141-0.4,0.315-0.553c0.175-0.153,0.376-0.23,0.604-0.23
		c0.2,0,0.347,0.05,0.437,0.151c0.09,0.101,0.169,0.242,0.237,0.424c0.138,0.35,0.329,0.61,0.573,0.783
		c0.244,0.172,0.601,0.259,1.072,0.259c0.382,0,0.711-0.087,0.984-0.262c0.273-0.175,0.429-0.375,0.466-0.6
		c0.057-0.345-0.029-0.596-0.257-0.754c-0.228-0.158-0.621-0.309-1.18-0.452c-0.63-0.167-1.135-0.344-1.517-0.528
		c-0.382-0.184-0.672-0.427-0.869-0.729c-0.198-0.301-0.259-0.673-0.186-1.113c0.065-0.393,0.24-0.763,0.526-1.113
		c0.287-0.349,0.669-0.628,1.15-0.837c0.479-0.208,1.034-0.312,1.663-0.312c0.494,0,0.93,0.053,1.306,0.158
		c0.376,0.106,0.681,0.246,0.916,0.424c0.234,0.178,0.402,0.373,0.504,0.589s0.136,0.426,0.102,0.632
		c-0.038,0.225-0.141,0.41-0.312,0.553c-0.171,0.144-0.391,0.216-0.661,0.216c-0.196,0-0.353-0.058-0.471-0.172
		c-0.119-0.115-0.248-0.287-0.387-0.517c-0.113-0.192-0.258-0.345-0.435-0.46c-0.177-0.115-0.433-0.172-0.769-0.172
		c-0.345,0-0.644,0.076-0.898,0.226c-0.254,0.152-0.399,0.339-0.436,0.564c-0.034,0.206,0.022,0.375,0.169,0.506
		c0.146,0.132,0.354,0.241,0.624,0.327c0.27,0.086,0.644,0.192,1.123,0.316c0.567,0.148,1.022,0.325,1.363,0.531
		c0.341,0.206,0.586,0.449,0.733,0.729C187.023,42.072,187.067,42.391,187.008,42.75z"/>
	<path fill="#168086" d="M193.891,37.514h0.21l0.195-1.178c0.052-0.316,0.101-0.564,0.147-0.743c0.046-0.18,0.117-0.334,0.213-0.464
		c0.096-0.134,0.222-0.243,0.376-0.326c0.154-0.084,0.316-0.126,0.49-0.126c0.242,0,0.446,0.094,0.611,0.28
		c0.11,0.124,0.167,0.277,0.172,0.456c0.005,0.18-0.019,0.435-0.074,0.765l-0.221,1.336h0.699c0.27,0,0.466,0.066,0.587,0.197
		c0.12,0.132,0.164,0.301,0.129,0.507c-0.044,0.264-0.175,0.447-0.396,0.553c-0.22,0.105-0.519,0.158-0.896,0.158h-0.357
		l-0.596,3.605c-0.051,0.307-0.08,0.543-0.086,0.707c-0.007,0.166,0.027,0.3,0.101,0.402c0.074,0.104,0.213,0.155,0.419,0.155
		c0.111,0,0.267-0.021,0.464-0.061c0.198-0.041,0.351-0.061,0.458-0.061c0.153,0,0.282,0.063,0.385,0.19
		c0.102,0.127,0.139,0.283,0.108,0.47c-0.052,0.316-0.26,0.558-0.623,0.725c-0.363,0.167-0.86,0.251-1.489,0.251
		c-0.597,0-1.032-0.103-1.306-0.309c-0.273-0.206-0.428-0.491-0.463-0.854c-0.036-0.364-0.003-0.849,0.097-1.458l0.622-3.763h-0.252
		c-0.275,0-0.474-0.067-0.596-0.201c-0.122-0.134-0.166-0.304-0.132-0.51c0.034-0.206,0.138-0.375,0.311-0.507
		C193.371,37.58,193.602,37.514,193.891,37.514z"/>
	<path fill="#168086" d="M203.19,44.208c-0.522,0.368-1.015,0.645-1.476,0.829c-0.462,0.184-0.961,0.277-1.497,0.277
		c-0.489,0-0.903-0.1-1.241-0.298c-0.338-0.199-0.579-0.469-0.723-0.808c-0.144-0.34-0.183-0.709-0.118-1.106
		c0.088-0.536,0.33-0.993,0.723-1.372s0.89-0.632,1.489-0.762c0.126-0.029,0.438-0.093,0.934-0.194
		c0.497-0.101,0.924-0.193,1.281-0.277c0.357-0.083,0.745-0.185,1.166-0.305c0.062-0.517,0.024-0.896-0.116-1.138
		c-0.139-0.242-0.491-0.363-1.056-0.363c-0.485,0-0.861,0.07-1.128,0.208c-0.268,0.139-0.512,0.347-0.733,0.625
		c-0.221,0.278-0.375,0.461-0.461,0.55c-0.087,0.088-0.249,0.133-0.487,0.133c-0.214,0-0.389-0.071-0.521-0.212
		c-0.133-0.141-0.181-0.321-0.144-0.542c0.057-0.345,0.231-0.68,0.523-1.006c0.292-0.325,0.707-0.594,1.245-0.804
		c0.538-0.211,1.183-0.316,1.933-0.316c0.839,0,1.482,0.101,1.929,0.305c0.446,0.203,0.732,0.525,0.858,0.966
		c0.125,0.44,0.128,1.025,0.007,1.752c-0.076,0.46-0.142,0.85-0.197,1.171c-0.056,0.321-0.118,0.677-0.188,1.07
		c-0.061,0.368-0.066,0.753-0.013,1.152c0.053,0.4,0.07,0.657,0.051,0.772c-0.033,0.201-0.156,0.385-0.367,0.549
		c-0.212,0.166-0.433,0.248-0.666,0.248c-0.196,0-0.374-0.095-0.534-0.283C203.503,44.841,203.345,44.567,203.19,44.208z
		 M203.534,41.371c-0.297,0.105-0.722,0.216-1.276,0.333c-0.553,0.118-0.937,0.204-1.151,0.259
		c-0.214,0.055-0.428,0.163-0.641,0.324c-0.213,0.16-0.344,0.384-0.391,0.671c-0.049,0.297,0.019,0.55,0.204,0.758
		c0.184,0.209,0.454,0.312,0.809,0.312c0.377,0,0.74-0.085,1.087-0.255c0.348-0.17,0.618-0.389,0.812-0.657
		c0.221-0.297,0.389-0.785,0.501-1.465L203.534,41.371z"/>
	<path fill="#168086" d="M207.118,44.122l1.406-8.504c0.065-0.393,0.199-0.689,0.403-0.89c0.203-0.202,0.45-0.302,0.739-0.302
		c0.289,0,0.505,0.099,0.65,0.298c0.144,0.199,0.184,0.497,0.118,0.894l-1.406,8.504c-0.066,0.397-0.205,0.695-0.417,0.894
		c-0.213,0.198-0.461,0.298-0.745,0.298c-0.28,0-0.49-0.103-0.631-0.309C207.093,44.799,207.055,44.505,207.118,44.122z"/>
	<path fill="#168086" d="M215.861,44.416l-1.215-2.844l-1.202,1.005l-0.258,1.558c-0.063,0.379-0.208,0.669-0.435,0.872
		c-0.227,0.204-0.466,0.306-0.718,0.306c-0.293,0-0.507-0.101-0.642-0.302c-0.135-0.201-0.17-0.498-0.105-0.89l1.382-8.36
		c0.072-0.436,0.209-0.767,0.409-0.994c0.201-0.227,0.453-0.341,0.756-0.341c0.294,0,0.51,0.102,0.648,0.309
		c0.138,0.206,0.174,0.51,0.108,0.912l-0.786,4.755l2.53-2.313c0.313-0.287,0.548-0.483,0.706-0.589
		c0.157-0.105,0.337-0.158,0.537-0.158c0.237,0,0.423,0.078,0.555,0.234c0.133,0.155,0.18,0.35,0.141,0.585
		c-0.048,0.287-0.37,0.67-0.966,1.149l-1.172,0.955l1.436,3.16c0.105,0.235,0.18,0.413,0.223,0.535
		c0.042,0.123,0.054,0.239,0.036,0.348c-0.052,0.311-0.175,0.557-0.37,0.736c-0.195,0.179-0.428,0.269-0.698,0.269
		c-0.233,0-0.402-0.065-0.507-0.194C216.151,44.991,216.02,44.756,215.861,44.416z"/>
	<path fill="#168086" d="M228.472,44.208c-0.523,0.368-1.015,0.645-1.477,0.829c-0.462,0.184-0.961,0.277-1.497,0.277
		c-0.489,0-0.903-0.1-1.241-0.298c-0.338-0.199-0.579-0.469-0.723-0.808c-0.144-0.34-0.184-0.709-0.118-1.106
		c0.089-0.536,0.33-0.993,0.723-1.372c0.394-0.379,0.89-0.632,1.49-0.762c0.126-0.029,0.437-0.093,0.934-0.194
		c0.497-0.101,0.924-0.193,1.281-0.277c0.356-0.083,0.745-0.185,1.166-0.305c0.062-0.517,0.024-0.896-0.116-1.138
		c-0.139-0.242-0.491-0.363-1.056-0.363c-0.485,0-0.861,0.07-1.128,0.208c-0.268,0.139-0.512,0.347-0.733,0.625
		c-0.221,0.278-0.375,0.461-0.461,0.55c-0.087,0.088-0.249,0.133-0.487,0.133c-0.214,0-0.388-0.071-0.521-0.212
		c-0.133-0.141-0.181-0.321-0.144-0.542c0.057-0.345,0.231-0.68,0.523-1.006c0.292-0.325,0.707-0.594,1.245-0.804
		c0.538-0.211,1.183-0.316,1.933-0.316c0.839,0,1.482,0.101,1.929,0.305c0.446,0.203,0.732,0.525,0.858,0.966
		c0.125,0.44,0.128,1.025,0.007,1.752c-0.076,0.46-0.142,0.85-0.197,1.171c-0.056,0.321-0.118,0.677-0.188,1.07
		c-0.061,0.368-0.066,0.753-0.013,1.152c0.053,0.4,0.07,0.657,0.051,0.772c-0.033,0.201-0.156,0.385-0.367,0.549
		c-0.212,0.166-0.433,0.248-0.666,0.248c-0.196,0-0.374-0.095-0.534-0.283C228.785,44.841,228.627,44.567,228.472,44.208z
		 M228.815,41.371c-0.297,0.105-0.722,0.216-1.276,0.333c-0.553,0.118-0.937,0.204-1.151,0.259
		c-0.214,0.055-0.428,0.163-0.641,0.324c-0.213,0.16-0.344,0.384-0.391,0.671c-0.049,0.297,0.018,0.55,0.203,0.758
		c0.184,0.209,0.454,0.312,0.808,0.312c0.379,0,0.741-0.085,1.088-0.255c0.348-0.17,0.618-0.389,0.812-0.657
		c0.221-0.297,0.389-0.785,0.501-1.465L228.815,41.371z"/>
	<path fill="#168086" d="M235.602,35.546l-0.495,2.995c0.422-0.383,0.837-0.676,1.243-0.88c0.407-0.204,0.885-0.305,1.435-0.305
		c0.634,0,1.165,0.154,1.592,0.464c0.427,0.308,0.723,0.756,0.889,1.342c0.167,0.587,0.184,1.282,0.05,2.086
		c-0.098,0.594-0.261,1.139-0.49,1.634c-0.23,0.496-0.513,0.925-0.853,1.29c-0.34,0.364-0.725,0.645-1.157,0.844
		c-0.432,0.198-0.888,0.298-1.368,0.298c-0.293,0-0.564-0.036-0.811-0.108c-0.247-0.072-0.451-0.166-0.614-0.284
		c-0.162-0.117-0.297-0.238-0.405-0.362c-0.108-0.124-0.246-0.311-0.415-0.56l-0.032,0.194c-0.061,0.368-0.193,0.647-0.397,0.837
		c-0.204,0.189-0.438,0.283-0.704,0.283c-0.27,0-0.47-0.095-0.6-0.283c-0.129-0.19-0.164-0.469-0.103-0.837l1.416-8.561
		c0.066-0.398,0.193-0.698,0.383-0.902c0.19-0.204,0.425-0.305,0.704-0.305c0.294,0,0.503,0.097,0.631,0.291
		C235.629,34.91,235.662,35.187,235.602,35.546z M234.731,41.371c-0.129,0.781-0.054,1.38,0.223,1.799
		c0.278,0.419,0.699,0.629,1.263,0.629c0.48,0,0.93-0.214,1.348-0.643c0.418-0.428,0.693-1.042,0.825-1.842
		c0.086-0.517,0.087-0.963,0.004-1.336c-0.083-0.373-0.241-0.662-0.473-0.865c-0.232-0.204-0.526-0.305-0.88-0.305
		c-0.364,0-0.705,0.101-1.022,0.305c-0.318,0.203-0.591,0.498-0.818,0.883C234.976,40.381,234.818,40.839,234.731,41.371z"/>
	<path fill="#168086" d="M249.302,41.328c-0.097,0.583-0.274,1.122-0.533,1.615s-0.585,0.917-0.979,1.272
		c-0.394,0.354-0.84,0.625-1.338,0.815c-0.497,0.189-1.038,0.283-1.621,0.283c-0.578,0-1.082-0.096-1.512-0.287
		c-0.43-0.192-0.785-0.466-1.063-0.823c-0.279-0.357-0.466-0.778-0.56-1.264c-0.095-0.485-0.094-1.023,0.004-1.612
		c0.098-0.594,0.276-1.137,0.535-1.631c0.259-0.493,0.582-0.914,0.972-1.264c0.389-0.35,0.834-0.619,1.336-0.809
		c0.502-0.189,1.038-0.283,1.607-0.283c0.578,0,1.087,0.096,1.526,0.287c0.439,0.192,0.798,0.465,1.075,0.819
		c0.278,0.354,0.463,0.776,0.557,1.264C249.401,40.2,249.4,40.739,249.302,41.328z M247.386,41.328
		c0.132-0.8,0.064-1.422-0.206-1.867c-0.269-0.445-0.693-0.668-1.271-0.668c-0.373,0-0.718,0.1-1.035,0.298
		c-0.317,0.199-0.585,0.492-0.803,0.88c-0.218,0.388-0.37,0.84-0.455,1.358c-0.085,0.512-0.083,0.96,0.005,1.343
		s0.257,0.676,0.505,0.88c0.248,0.203,0.564,0.305,0.946,0.305c0.578,0,1.076-0.223,1.493-0.671
		C246.982,42.736,247.256,42.118,247.386,41.328z"/>
	<path fill="#168086" d="M255.542,44.208l0.041-0.251c-0.278,0.297-0.559,0.546-0.844,0.747c-0.284,0.201-0.585,0.351-0.899,0.449
		c-0.315,0.098-0.664,0.147-1.046,0.147c-0.461,0-0.859-0.098-1.193-0.295c-0.333-0.196-0.572-0.466-0.715-0.811
		c-0.169-0.417-0.189-1.015-0.06-1.795l0.642-3.886c0.065-0.393,0.2-0.687,0.404-0.88c0.204-0.194,0.449-0.291,0.734-0.291
		c0.289,0,0.506,0.099,0.651,0.295s0.185,0.488,0.121,0.876l-0.519,3.139c-0.075,0.455-0.101,0.837-0.078,1.145
		c0.024,0.309,0.118,0.551,0.283,0.726c0.164,0.175,0.412,0.262,0.744,0.262c0.321,0,0.641-0.099,0.958-0.295
		c0.316-0.196,0.567-0.452,0.75-0.768c0.152-0.278,0.307-0.886,0.462-1.824l0.394-2.384c0.064-0.388,0.201-0.68,0.411-0.876
		c0.209-0.196,0.456-0.295,0.741-0.295s0.497,0.097,0.637,0.291c0.141,0.193,0.178,0.487,0.113,0.88l-0.939,5.681
		c-0.062,0.373-0.191,0.653-0.387,0.84c-0.197,0.186-0.426,0.28-0.686,0.28c-0.261,0-0.46-0.097-0.599-0.291
		C255.524,44.829,255.484,44.557,255.542,44.208z"/>
	<path fill="#168086" d="M260.718,37.514h0.21l0.195-1.178c0.052-0.316,0.101-0.564,0.147-0.743c0.046-0.18,0.117-0.334,0.213-0.464
		c0.097-0.134,0.222-0.243,0.376-0.326c0.154-0.084,0.317-0.126,0.489-0.126c0.242,0,0.446,0.094,0.611,0.28
		c0.11,0.124,0.167,0.277,0.172,0.456c0.005,0.18-0.019,0.435-0.074,0.765l-0.221,1.336h0.699c0.27,0,0.466,0.066,0.587,0.197
		c0.12,0.132,0.164,0.301,0.129,0.507c-0.044,0.264-0.175,0.447-0.396,0.553c-0.22,0.105-0.519,0.158-0.896,0.158h-0.357
		l-0.596,3.605c-0.051,0.307-0.08,0.543-0.086,0.707c-0.007,0.166,0.027,0.3,0.101,0.402c0.074,0.104,0.213,0.155,0.419,0.155
		c0.111,0,0.267-0.021,0.464-0.061c0.198-0.041,0.351-0.061,0.458-0.061c0.153,0,0.282,0.063,0.385,0.19
		c0.102,0.127,0.138,0.283,0.108,0.47c-0.052,0.316-0.26,0.558-0.623,0.725c-0.363,0.167-0.86,0.251-1.49,0.251
		c-0.597,0-1.032-0.103-1.306-0.309c-0.273-0.206-0.428-0.491-0.464-0.854c-0.035-0.364-0.003-0.849,0.098-1.458l0.622-3.763h-0.252
		c-0.275,0-0.474-0.067-0.596-0.201c-0.123-0.134-0.167-0.304-0.133-0.51c0.034-0.206,0.138-0.375,0.311-0.507
		C260.197,37.58,260.429,37.514,260.718,37.514z"/>
	<path fill="#168086" d="M271.734,38.455l-0.937,5.667c-0.065,0.393-0.206,0.689-0.421,0.89c-0.214,0.201-0.462,0.302-0.742,0.302
		c-0.28,0-0.49-0.103-0.631-0.309c-0.141-0.206-0.179-0.5-0.116-0.883l0.927-5.609c0.064-0.388,0.2-0.68,0.407-0.876
		c0.208-0.196,0.451-0.295,0.731-0.295c0.28,0,0.494,0.099,0.643,0.295C271.746,37.832,271.791,38.105,271.734,38.455z
		 M271.124,36.429c-0.265,0-0.479-0.084-0.64-0.251c-0.161-0.167-0.216-0.404-0.166-0.711c0.046-0.278,0.181-0.506,0.404-0.687
		c0.223-0.179,0.463-0.269,0.719-0.269c0.247,0,0.453,0.081,0.617,0.244c0.165,0.163,0.221,0.4,0.17,0.711
		c-0.05,0.301-0.183,0.538-0.396,0.707C271.616,36.344,271.38,36.429,271.124,36.429z"/>
	<path fill="#168086" d="M274.203,37.514h0.21l0.195-1.178c0.052-0.316,0.101-0.564,0.147-0.743c0.046-0.18,0.117-0.334,0.213-0.464
		c0.097-0.134,0.222-0.243,0.376-0.326c0.154-0.084,0.317-0.126,0.489-0.126c0.242,0,0.446,0.094,0.611,0.28
		c0.11,0.124,0.167,0.277,0.172,0.456c0.005,0.18-0.019,0.435-0.074,0.765l-0.221,1.336h0.699c0.27,0,0.466,0.066,0.587,0.197
		c0.12,0.132,0.164,0.301,0.129,0.507c-0.044,0.264-0.175,0.447-0.396,0.553c-0.22,0.105-0.519,0.158-0.896,0.158h-0.357
		l-0.596,3.605c-0.051,0.307-0.08,0.543-0.086,0.707c-0.007,0.166,0.027,0.3,0.101,0.402c0.074,0.104,0.213,0.155,0.419,0.155
		c0.111,0,0.267-0.021,0.464-0.061c0.198-0.041,0.351-0.061,0.458-0.061c0.153,0,0.282,0.063,0.385,0.19
		c0.102,0.127,0.138,0.283,0.108,0.47c-0.052,0.316-0.26,0.558-0.623,0.725c-0.363,0.167-0.86,0.251-1.49,0.251
		c-0.597,0-1.032-0.103-1.306-0.309c-0.273-0.206-0.428-0.491-0.464-0.854c-0.035-0.364-0.003-0.849,0.098-1.458l0.622-3.763h-0.252
		c-0.275,0-0.474-0.067-0.596-0.201c-0.123-0.134-0.167-0.304-0.133-0.51c0.034-0.206,0.138-0.375,0.311-0.507
		C273.682,37.58,273.914,37.514,274.203,37.514z"/>
	<path fill="#168086" d="M279.533,45.304c-0.274,0-0.496-0.091-0.665-0.272c-0.169-0.182-0.227-0.437-0.172-0.764
		c0.046-0.277,0.18-0.516,0.404-0.716c0.223-0.2,0.474-0.3,0.753-0.3s0.5,0.099,0.665,0.297c0.164,0.198,0.223,0.437,0.176,0.719
		c-0.054,0.323-0.194,0.576-0.421,0.76C280.045,45.212,279.798,45.304,279.533,45.304z"/>
</g>
<g>
	<path fill="#010101" d="M156.716,25.91c-0.387,0-0.716-0.138-0.989-0.416c-0.273-0.277-0.409-0.609-0.409-0.995
		s0.137-0.72,0.409-1.002c0.273-0.281,0.603-0.422,0.989-0.422c0.394,0,0.73,0.141,1.008,0.422c0.277,0.282,0.415,0.615,0.415,1.002
		s-0.139,0.718-0.415,0.995C157.447,25.772,157.111,25.91,156.716,25.91z"/>
	<path fill="#010101" d="M171.665,24.6c0,4.737-2.268,7.106-6.804,7.106c-1.596,0-2.99-0.302-4.183-0.907v-2.066
		c1.453,0.806,2.839,1.21,4.158,1.21c3.175,0,4.762-1.688,4.762-5.065v-1.411h-0.05c-0.983,1.646-2.461,2.469-4.435,2.469
		c-1.604,0-2.896-0.573-3.874-1.72c-0.978-1.147-1.468-2.686-1.468-4.618c0-2.192,0.527-3.935,1.581-5.228
		c1.054-1.294,2.496-1.94,4.327-1.94c1.739,0,3.028,0.697,3.868,2.091h0.05v-1.789h2.066V24.6z M169.598,19.799v-1.902
		c0-1.025-0.347-1.902-1.039-2.633c-0.693-0.73-1.556-1.096-2.589-1.096c-1.277,0-2.276,0.464-2.999,1.392
		c-0.722,0.928-1.084,2.228-1.084,3.9c0,1.436,0.347,2.585,1.039,3.446c0.693,0.861,1.61,1.291,2.753,1.291
		c1.159,0,2.102-0.412,2.829-1.235C169.235,22.139,169.598,21.085,169.598,19.799z"/>
	<path fill="#010101" d="M180.352,25.935c-1.907,0-3.429-0.603-4.567-1.808c-1.138-1.205-1.707-2.803-1.707-4.794
		c0-2.167,0.592-3.859,1.776-5.078c1.185-1.217,2.785-1.827,4.801-1.827c1.923,0,3.425,0.592,4.504,1.776
		c1.079,1.185,1.619,2.827,1.619,4.927c0,2.058-0.582,3.706-1.745,4.945C183.869,25.316,182.309,25.935,180.352,25.935z
		 M180.503,14.168c-1.327,0-2.377,0.451-3.15,1.355c-0.773,0.903-1.159,2.148-1.159,3.735c0,1.529,0.391,2.734,1.171,3.616
		c0.782,0.882,1.827,1.323,3.137,1.323c1.336,0,2.362-0.432,3.08-1.297c0.718-0.865,1.077-2.096,1.077-3.692
		c0-1.613-0.359-2.856-1.077-3.729C182.866,14.605,181.839,14.168,180.503,14.168z"/>
	<path fill="#010101" d="M198.642,12.732l-5.14,12.901h-2.029l-4.888-12.901h2.268l3.276,9.374c0.244,0.689,0.395,1.29,0.454,1.802
		h0.05c0.084-0.647,0.218-1.231,0.403-1.752l3.427-9.424H198.642z"/>
</g>
<g opacity="0.7">
	<path fill="#010101" d="M25.787,25.633h-2.043v-12.12c0-0.958,0.057-2.13,0.171-3.515h-0.049c-0.196,0.815-0.371,1.398-0.526,1.751
		l-5.993,13.884h-1.003L10.364,11.85c-0.171-0.403-0.347-1.021-0.526-1.852H9.789c0.065,0.722,0.098,1.902,0.098,3.54v12.095H7.905
		V7.566h2.715l5.382,12.599c0.416,0.966,0.685,1.688,0.807,2.167h0.073c0.351-0.991,0.632-1.73,0.844-2.217l5.492-12.549h2.569
		V25.633z"/>
	<path fill="#010101" d="M39.413,19.699h-8.843c0.033,1.437,0.408,2.546,1.125,3.326c0.718,0.782,1.704,1.172,2.96,1.172
		c1.411,0,2.707-0.479,3.889-1.436v1.94c-1.101,0.823-2.556,1.235-4.367,1.235c-1.769,0-3.16-0.586-4.171-1.758
		c-1.011-1.171-1.517-2.82-1.517-4.945c0-2.007,0.552-3.643,1.657-4.907c1.105-1.264,2.477-1.896,4.116-1.896
		c1.639,0,2.907,0.546,3.804,1.638c0.897,1.092,1.345,2.608,1.345,4.549V19.699z M37.358,17.948
		c-0.008-1.193-0.287-2.121-0.838-2.785c-0.55-0.663-1.315-0.995-2.293-0.995c-0.946,0-1.749,0.349-2.41,1.045
		c-0.66,0.698-1.068,1.609-1.223,2.734H37.358z"/>
	<path fill="#010101" d="M52.158,25.633h-2.006v-7.358c0-2.738-0.97-4.107-2.911-4.107c-1.003,0-1.833,0.389-2.489,1.165
		c-0.656,0.777-0.984,1.758-0.984,2.942v7.358h-2.006V12.732h2.006v2.142h0.049c0.946-1.629,2.316-2.444,4.11-2.444
		c1.37,0,2.418,0.456,3.143,1.367c0.726,0.912,1.089,2.228,1.089,3.95V25.633z"/>
	<path fill="#010101" d="M60.839,25.507c-0.473,0.269-1.097,0.403-1.871,0.403c-2.193,0-3.29-1.26-3.29-3.78v-7.635h-2.153v-1.764
		h2.153v-3.15l2.006-0.668v3.818h3.156v1.764h-3.156v7.269c0,0.866,0.143,1.483,0.428,1.852c0.285,0.37,0.758,0.554,1.419,0.554
		c0.506,0,0.942-0.143,1.309-0.428V25.507z"/>
	<path fill="#010101" d="M72.581,25.633h-2.006v-2.016h-0.049c-0.872,1.545-2.157,2.318-3.853,2.318c-1.248,0-2.224-0.34-2.929-1.02
		c-0.705-0.681-1.058-1.584-1.058-2.709c0-2.411,1.378-3.813,4.134-4.208l3.755-0.541c0-2.193-0.86-3.289-2.581-3.289
		c-1.509,0-2.87,0.529-4.085,1.587v-2.117c1.231-0.806,2.65-1.21,4.256-1.21c2.944,0,4.415,1.604,4.415,4.813V25.633z
		 M70.575,19.107l-3.021,0.428c-0.93,0.134-1.631,0.372-2.104,0.712c-0.473,0.34-0.709,0.943-0.709,1.808
		c0,0.63,0.218,1.145,0.655,1.543c0.436,0.399,1.017,0.599,1.743,0.599c0.995,0,1.816-0.359,2.465-1.077
		c0.648-0.718,0.972-1.627,0.972-2.728V19.107z"/>
	<path fill="#010101" d="M79.761,24.337c-0.154,0.062-0.311,0.105-0.46,0.088c-0.657-0.072-0.832-0.177-1.117-0.562
		c-0.285-0.384-0.428-1.026-0.428-1.926V8.577L75.75,9.271v13.046c0,2.62,1.097,3.93,3.29,3.93c0.275,0,0.499-0.044,0.721-0.126
		V24.337z"/>
</g>
<g>
	<path fill="#010101" stroke="#231F20" stroke-width="0.75" stroke-miterlimit="10" d="M96.826,25.633h-2.117v-8.24h-9.349v8.24
		h-2.117V7.566h2.117v7.925h9.349V7.566h2.117V25.633z"/>
	<path fill="#010101" stroke="#231F20" stroke-width="0.75" stroke-miterlimit="10" d="M110.826,19.699h-9.109
		c0.034,1.437,0.42,2.546,1.159,3.326c0.739,0.782,1.755,1.172,3.049,1.172c1.453,0,2.789-0.479,4.007-1.436v1.94
		c-1.134,0.823-2.633,1.235-4.498,1.235c-1.823,0-3.254-0.586-4.296-1.758c-1.042-1.171-1.562-2.82-1.562-4.945
		c0-2.007,0.569-3.643,1.707-4.907c1.138-1.264,2.551-1.896,4.239-1.896s2.994,0.546,3.919,1.638
		c0.923,1.092,1.385,2.608,1.385,4.549V19.699z M108.71,17.948c-0.008-1.193-0.296-2.121-0.863-2.785
		c-0.567-0.663-1.355-0.995-2.362-0.995c-0.974,0-1.801,0.349-2.482,1.045c-0.68,0.698-1.1,1.609-1.26,2.734H108.71z"/>
	<path fill="#010101" stroke="#231F20" stroke-width="0.75" stroke-miterlimit="10" d="M122.932,25.633h-2.066v-2.016h-0.05
		c-0.899,1.545-2.222,2.318-3.969,2.318c-1.285,0-2.291-0.34-3.018-1.02c-0.726-0.681-1.09-1.584-1.09-2.709
		c0-2.411,1.419-3.813,4.258-4.208l3.868-0.541c0-2.193-0.886-3.289-2.659-3.289c-1.554,0-2.957,0.529-4.208,1.587v-2.117
		c1.268-0.806,2.73-1.21,4.384-1.21c3.032,0,4.549,1.604,4.549,4.813V25.633z M120.866,19.107l-3.112,0.428
		c-0.958,0.134-1.68,0.372-2.167,0.712c-0.487,0.34-0.731,0.943-0.731,1.808c0,0.63,0.225,1.145,0.674,1.543
		c0.449,0.399,1.048,0.599,1.795,0.599c1.025,0,1.871-0.359,2.539-1.077c0.667-0.718,1.002-1.627,1.002-2.728V19.107z"/>
	<path fill="#010101" stroke="#231F20" stroke-width="0.75" stroke-miterlimit="10" d="M138.495,25.475
		c-0.487,0.29-1.129,0.435-1.927,0.435c-2.259,0-3.389-1.36-3.389-4.079V13.59h-2.217v-1.904h2.217v-3.4l2.066-0.721v4.121h3.25
		v1.904h-3.25v7.846c0,0.934,0.147,1.6,0.441,1.999c0.294,0.399,0.781,0.598,1.461,0.598c0.521,0,0.97-0.154,1.348-0.462V25.475z"/>
	<path fill="#010101" stroke="#231F20" stroke-width="0.75" stroke-miterlimit="10" d="M151.613,25.633h-2.066V18.2
		c0-2.688-1-4.032-2.999-4.032c-1.008,0-1.856,0.389-2.545,1.165c-0.689,0.777-1.033,1.775-1.033,2.992v7.307h-2.066v-19.1h2.066
		v8.341h0.05c0.991-1.629,2.402-2.444,4.233-2.444c2.906,0,4.359,1.752,4.359,5.254V25.633z"/>
	<path fill="#010101" stroke="#231F20" stroke-width="0.75" stroke-miterlimit="10" d="M129.814,24.337
		c-0.158,0.062-0.32,0.105-0.474,0.088c-0.677-0.072-0.857-0.177-1.151-0.562c-0.294-0.384-0.441-1.026-0.441-1.926V8.577
		l-2.066,0.695v13.046c0,2.62,1.13,3.93,3.389,3.93c0.284,0,0.514-0.044,0.743-0.126V24.337z"/>
</g>
</svg>
